# xmcd CD database file
#
# Track frame offsets:
#	150
#	18722
#	36972
#
# Disc length: 649 seconds
#
# Revision: 0
# Processed by: cddbd v1.5.1PL0 Copyright (c) Steve Scherf et al.
# Submitted via: CDex 1.60beta1
#
DISCID=20028703
DTITLE=中森明菜 - スローモーション
DYEAR=1998
DGENRE=JPop
TTITLE0=スローモーション
TTITLE1=条件反射
TTITLE2=スローモーション <Live Version>
EXTD=YEAR: 1998
EXTT0=
EXTT1=
EXTT2=
PLAYORDER=
